<?xml version="1.0" encoding="UTF-8"?>
<!DOCTYPE svg PUBLIC "-//W3C//DTD SVG 1.1//EN" "http://www.w3.org/Graphics/SVG/1.1/DTD/svg11.dtd">
<svg version="1.2" width="132mm" height="81mm" viewBox="0 0 13200 8100" preserveAspectRatio="xMidYMid" fill-rule="evenodd" stroke-width="28.222" stroke-linejoin="round" xmlns="http://www.w3.org/2000/svg" xmlns:ooo="http://xml.openoffice.org/svg/export" xmlns:xlink="http://www.w3.org/1999/xlink" xmlns:presentation="http://sun.com/xmlns/staroffice/presentation" xmlns:smil="http://www.w3.org/2001/SMIL20/" xmlns:anim="urn:oasis:names:tc:opendocument:xmlns:animation:1.0" xml:space="preserve">
 <defs class="ClipPathGroup">
  <clipPath id="presentation_clip_path" clipPathUnits="userSpaceOnUse">
   <rect x="0" y="0" width="13200" height="8100"/>
  </clipPath>
 </defs>
 <defs class="TextShapeIndex">
  <g ooo:slide="id1" ooo:id-list="id3 id4 id5 id6 id7 id8 id9 id10 id11 id12 id13 id14 id15 id16 id17 id18 id19 id20 id21 id22 id23 id24 id25 id26 id27 id28 id29 id30 id31 id32 id33 id34 id35 id36 id37"/>
 </defs>
 <defs class="EmbeddedBulletChars">
  <g id="bullet-char-template(57356)" transform="scale(0.00048828125,-0.00048828125)">
   <path d="M 580,1141 L 1163,571 580,0 -4,571 580,1141 Z"/>
  </g>
  <g id="bullet-char-template(57354)" transform="scale(0.00048828125,-0.00048828125)">
   <path d="M 8,1128 L 1137,1128 1137,0 8,0 8,1128 Z"/>
  </g>
  <g id="bullet-char-template(10146)" transform="scale(0.00048828125,-0.00048828125)">
   <path d="M 174,0 L 602,739 174,1481 1456,739 174,0 Z M 1358,739 L 309,1346 659,739 1358,739 Z"/>
  </g>
  <g id="bullet-char-template(10132)" transform="scale(0.00048828125,-0.00048828125)">
   <path d="M 2015,739 L 1276,0 717,0 1260,543 174,543 174,936 1260,936 717,1481 1274,1481 2015,739 Z"/>
  </g>
  <g id="bullet-char-template(10007)" transform="scale(0.00048828125,-0.00048828125)">
   <path d="M 0,-2 C -7,14 -16,27 -25,37 L 356,567 C 262,823 215,952 215,954 215,979 228,992 255,992 264,992 276,990 289,987 310,991 331,999 354,1012 L 381,999 492,748 772,1049 836,1024 860,1049 C 881,1039 901,1025 922,1006 886,937 835,863 770,784 769,783 710,716 594,584 L 774,223 C 774,196 753,168 711,139 L 727,119 C 717,90 699,76 672,76 641,76 570,178 457,381 L 164,-76 C 142,-110 111,-127 72,-127 30,-127 9,-110 8,-76 1,-67 -2,-52 -2,-32 -2,-23 -1,-13 0,-2 Z"/>
  </g>
  <g id="bullet-char-template(10004)" transform="scale(0.00048828125,-0.00048828125)">
   <path d="M 285,-33 C 182,-33 111,30 74,156 52,228 41,333 41,471 41,549 55,616 82,672 116,743 169,778 240,778 293,778 328,747 346,684 L 369,508 C 377,444 397,411 428,410 L 1163,1116 C 1174,1127 1196,1133 1229,1133 1271,1133 1292,1118 1292,1087 L 1292,965 C 1292,929 1282,901 1262,881 L 442,47 C 390,-6 338,-33 285,-33 Z"/>
  </g>
  <g id="bullet-char-template(9679)" transform="scale(0.00048828125,-0.00048828125)">
   <path d="M 813,0 C 632,0 489,54 383,161 276,268 223,411 223,592 223,773 276,916 383,1023 489,1130 632,1184 813,1184 992,1184 1136,1130 1245,1023 1353,916 1407,772 1407,592 1407,412 1353,268 1245,161 1136,54 992,0 813,0 Z"/>
  </g>
  <g id="bullet-char-template(8226)" transform="scale(0.00048828125,-0.00048828125)">
   <path d="M 346,457 C 273,457 209,483 155,535 101,586 74,649 74,723 74,796 101,859 155,911 209,963 273,989 346,989 419,989 480,963 531,910 582,859 608,796 608,723 608,648 583,586 532,535 482,483 420,457 346,457 Z"/>
  </g>
  <g id="bullet-char-template(8211)" transform="scale(0.00048828125,-0.00048828125)">
   <path d="M -4,459 L 1135,459 1135,606 -4,606 -4,459 Z"/>
  </g>
 </defs>
 <defs class="TextEmbeddedBitmaps"/>
 <g>
  <g id="id2" class="Master_Slide">
   <g id="bg-id2" class="Background"/>
   <g id="bo-id2" class="BackgroundObjects"/>
  </g>
 </g>
 <g class="SlideGroup">
  <g>
   <g id="id1" class="Slide" clip-path="url(#presentation_clip_path)">
    <g class="Page">
     <g class="com.sun.star.drawing.ClosedBezierShape">
      <g id="id3">
       <rect class="BoundingBox" stroke="none" fill="none" x="600" y="5870" width="546" height="919"/>
       <path fill="rgb(55,18,11)" stroke="none" d="M 886,5871 C 843,5871 807,5872 794,5872 725,5874 627,5886 600,5894 603,5952 605,5990 605,6047 L 605,6759 C 605,6784 615,6788 638,6788 702,6788 783,6784 808,6775 805,6668 803,6541 803,6400 L 1002,6400 C 1060,6400 1096,6396 1112,6280 L 803,6280 803,5991 976,5991 C 1042,5991 1071,5991 1090,5985 1111,5965 1132,5945 1145,5872 1095,5872 975,5871 886,5871 Z"/>
      </g>
     </g>
     <g class="com.sun.star.drawing.ClosedBezierShape">
      <g id="id4">
       <rect class="BoundingBox" stroke="none" fill="none" x="1256" y="5871" width="559" height="918"/>
       <path fill="rgb(55,18,11)" stroke="none" d="M 1773,5872 L 1436,5872 C 1370,5872 1299,5881 1256,5893 1260,5957 1260,6007 1260,6075 L 1260,6744 1282,6772 C 1317,6780 1408,6788 1529,6788 1643,6788 1716,6785 1736,6780 1774,6757 1799,6729 1813,6665 L 1810,6661 C 1736,6668 1635,6668 1578,6668 1529,6668 1493,6665 1460,6659 L 1460,6369 1661,6369 C 1713,6369 1749,6342 1757,6250 L 1460,6250 1460,5991 1588,5991 C 1651,5991 1707,5991 1730,5983 1746,5964 1763,5945 1773,5872 Z"/>
      </g>
     </g>
     <g class="com.sun.star.drawing.ClosedBezierShape">
      <g id="id5">
       <rect class="BoundingBox" stroke="none" fill="none" x="1938" y="5863" width="822" height="931"/>
       <path fill="rgb(55,18,11)" stroke="none" d="M 2245,6679 C 2200,6679 2174,6677 2140,6669 L 2140,5984 C 2158,5981 2181,5978 2226,5978 2423,5978 2547,6091 2547,6312 2547,6620 2366,6679 2245,6679 Z M 2251,5864 C 2127,5864 1973,5884 1939,5895 1940,5929 1942,5959 1942,6058 L 1942,6767 C 2040,6784 2142,6793 2246,6793 2541,6793 2759,6622 2759,6315 2759,6129 2680,5864 2251,5864 Z"/>
      </g>
     </g>
     <g class="com.sun.star.drawing.ClosedBezierShape">
      <g id="id6">
       <rect class="BoundingBox" stroke="none" fill="none" x="2844" y="5871" width="560" height="918"/>
       <path fill="rgb(55,18,11)" stroke="none" d="M 3361,5872 L 3023,5872 C 2959,5872 2888,5881 2844,5893 2849,5957 2849,6007 2849,6075 L 2849,6744 2871,6772 C 2906,6780 2997,6788 3118,6788 3232,6788 3305,6785 3325,6780 3363,6757 3388,6729 3402,6665 L 3399,6661 C 3325,6668 3223,6668 3168,6668 3118,6668 3080,6665 3047,6659 L 3047,6369 3249,6369 C 3301,6369 3339,6342 3345,6250 L 3047,6250 3047,5991 3176,5991 C 3240,5991 3296,5991 3318,5983 3335,5964 3352,5945 3361,5872 Z"/>
      </g>
     </g>
     <g class="com.sun.star.drawing.ClosedBezierShape">
      <g id="id7">
       <rect class="BoundingBox" stroke="none" fill="none" x="3524" y="5863" width="720" height="928"/>
       <path fill="rgb(55,18,11)" stroke="none" d="M 3742,6306 C 3735,6306 3729,6305 3724,6305 L 3724,5974 C 3737,5970 3762,5970 3780,5970 3864,5970 3936,6023 3936,6139 3936,6243 3877,6278 3856,6289 3839,6297 3779,6306 3742,6306 Z M 3799,5864 C 3730,5864 3561,5880 3526,5890 3529,5928 3529,5964 3529,6035 L 3529,6521 C 3529,6643 3527,6728 3525,6788 3556,6788 3649,6786 3689,6781 3717,6778 3724,6772 3724,6742 L 3724,6408 3747,6408 C 3781,6408 3813,6416 3858,6504 3919,6629 3946,6688 3977,6728 4015,6776 4057,6790 4119,6790 4162,6790 4229,6784 4243,6773 L 4243,6770 C 4208,6736 4153,6658 4086,6533 4038,6443 3990,6365 3968,6348 4038,6323 4140,6250 4140,6124 4140,5945 4038,5864 3799,5864 Z"/>
      </g>
     </g>
     <g class="com.sun.star.drawing.ClosedBezierShape">
      <g id="id8">
       <rect class="BoundingBox" stroke="none" fill="none" x="4314" y="5865" width="883" height="924"/>
       <path fill="rgb(55,18,11)" stroke="none" d="M 4614,6408 C 4666,6264 4701,6167 4734,6076 4750,6113 4794,6230 4858,6408 L 4614,6408 Z M 4825,5866 C 4809,5866 4717,5872 4657,5885 L 4666,5913 C 4612,6046 4388,6584 4315,6763 L 4316,6768 C 4349,6778 4407,6788 4442,6788 4463,6788 4474,6780 4480,6768 4498,6723 4541,6607 4572,6526 L 4890,6526 C 4920,6604 4939,6666 4965,6739 4980,6780 4992,6788 5014,6788 5050,6788 5161,6780 5193,6770 L 5195,6764 C 5165,6699 5133,6607 5072,6454 5027,6331 4925,6054 4858,5894 4849,5873 4838,5866 4825,5866 Z"/>
      </g>
     </g>
     <g class="com.sun.star.drawing.ClosedBezierShape">
      <g id="id9">
       <rect class="BoundingBox" stroke="none" fill="none" x="5314" y="5865" width="545" height="924"/>
       <path fill="rgb(55,18,11)" stroke="none" d="M 5487,5866 C 5426,5866 5348,5873 5315,5877 5317,5908 5319,5968 5319,6065 L 5319,6743 5341,6772 C 5376,6780 5480,6788 5599,6788 5715,6788 5765,6785 5785,6780 5823,6757 5851,6711 5858,6664 L 5856,6660 C 5780,6667 5694,6667 5637,6667 5588,6667 5537,6664 5519,6658 L 5519,5952 C 5519,5880 5514,5866 5487,5866 Z"/>
      </g>
     </g>
     <g class="com.sun.star.drawing.ClosedBezierShape">
      <g id="id10">
       <rect class="BoundingBox" stroke="none" fill="none" x="6293" y="5863" width="822" height="931"/>
       <path fill="rgb(55,18,11)" stroke="none" d="M 6600,6679 C 6556,6679 6529,6677 6494,6669 L 6494,5984 C 6513,5981 6536,5978 6583,5978 6778,5978 6902,6091 6902,6312 6902,6620 6722,6679 6600,6679 Z M 6607,5864 C 6481,5864 6327,5884 6293,5895 6294,5929 6295,5959 6295,6058 L 6295,6767 C 6394,6784 6496,6793 6601,6793 6896,6793 7113,6622 7113,6315 7113,6129 7035,5864 6607,5864 Z"/>
      </g>
     </g>
     <g class="com.sun.star.drawing.ClosedBezierShape">
      <g id="id11">
       <rect class="BoundingBox" stroke="none" fill="none" x="7209" y="5848" width="941" height="953"/>
       <path fill="rgb(55,18,11)" stroke="none" d="M 7692,6688 C 7545,6688 7422,6558 7422,6312 7422,6075 7531,5962 7665,5962 L 7666,5962 C 7824,5962 7935,6103 7935,6333 7935,6556 7849,6688 7692,6688 Z M 7678,5848 L 7676,5848 C 7385,5848 7210,6057 7210,6329 7210,6560 7346,6800 7682,6800 7987,6800 8148,6584 8148,6317 8148,6085 8006,5848 7678,5848 Z"/>
      </g>
     </g>
     <g class="com.sun.star.drawing.ClosedBezierShape">
      <g id="id12">
       <rect class="BoundingBox" stroke="none" fill="none" x="8571" y="5848" width="787" height="953"/>
       <path fill="rgb(55,18,11)" stroke="none" d="M 9090,5848 C 8798,5848 8572,6034 8572,6335 8572,6608 8756,6800 9088,6800 9181,6800 9256,6778 9294,6755 9320,6732 9344,6675 9344,6638 L 9342,6636 C 9307,6647 9230,6665 9133,6665 8906,6665 8784,6515 8784,6322 8784,6090 8926,5974 9092,5974 9181,5974 9247,5996 9301,6018 9335,6009 9364,5952 9355,5920 9333,5895 9231,5848 9090,5848 Z"/>
      </g>
     </g>
     <g class="com.sun.star.drawing.ClosedBezierShape">
      <g id="id13">
       <rect class="BoundingBox" stroke="none" fill="none" x="9408" y="5865" width="883" height="924"/>
       <path fill="rgb(55,18,11)" stroke="none" d="M 9708,6408 C 9762,6264 9796,6167 9829,6076 9845,6113 9889,6230 9953,6408 L 9708,6408 Z M 9920,5866 C 9903,5866 9813,5872 9752,5885 L 9762,5913 C 9707,6046 9482,6584 9409,6763 L 9410,6768 C 9444,6778 9502,6788 9536,6788 9557,6788 9570,6780 9575,6768 9593,6723 9638,6607 9667,6526 L 9985,6526 C 10015,6604 10035,6666 10061,6739 10075,6780 10087,6788 10109,6788 10146,6788 10255,6780 10287,6770 L 10289,6764 C 10261,6699 10227,6607 10168,6454 10121,6331 10020,6054 9953,5894 9944,5873 9933,5866 9920,5866 Z"/>
      </g>
     </g>
     <g class="com.sun.star.drawing.ClosedBezierShape">
      <g id="id14">
       <rect class="BoundingBox" stroke="none" fill="none" x="10378" y="5863" width="720" height="928"/>
       <path fill="rgb(55,18,11)" stroke="none" d="M 10594,6306 C 10588,6306 10582,6305 10577,6305 L 10577,5974 C 10589,5970 10615,5970 10633,5970 10716,5970 10790,6023 10790,6139 10790,6243 10730,6278 10709,6289 10692,6297 10632,6306 10594,6306 Z M 10652,5864 C 10583,5864 10416,5880 10380,5890 10382,5928 10382,5964 10382,6035 L 10382,6521 C 10382,6643 10381,6728 10378,6788 10410,6788 10502,6786 10542,6781 10570,6778 10577,6772 10577,6742 L 10577,6408 10599,6408 C 10634,6408 10666,6416 10710,6504 10772,6629 10799,6688 10831,6728 10868,6776 10910,6790 10973,6790 11017,6790 11083,6784 11097,6773 L 11097,6770 C 11062,6736 11007,6658 10939,6533 10892,6443 10844,6365 10821,6348 10890,6323 10994,6250 10994,6124 10994,5945 10890,5864 10652,5864 Z"/>
      </g>
     </g>
     <g class="com.sun.star.drawing.ClosedBezierShape">
      <g id="id15">
       <rect class="BoundingBox" stroke="none" fill="none" x="11211" y="5865" width="211" height="924"/>
       <path fill="rgb(55,18,11)" stroke="none" d="M 11383,5866 C 11351,5866 11239,5873 11211,5877 11214,5906 11216,5965 11216,6062 L 11216,6759 C 11216,6784 11227,6788 11249,6788 11285,6788 11396,6784 11420,6775 11418,6746 11416,6699 11416,6596 L 11416,5945 C 11416,5880 11411,5866 11383,5866 Z"/>
      </g>
     </g>
     <g class="com.sun.star.drawing.ClosedBezierShape">
      <g id="id16">
       <rect class="BoundingBox" stroke="none" fill="none" x="11608" y="5863" width="721" height="928"/>
       <path fill="rgb(55,18,11)" stroke="none" d="M 11825,6306 C 11819,6306 11813,6305 11808,6305 L 11808,5974 C 11820,5970 11845,5970 11864,5970 11947,5970 12020,6023 12020,6139 12020,6243 11961,6278 11939,6289 11923,6297 11863,6306 11825,6306 Z M 11883,5864 C 11814,5864 11647,5880 11611,5890 11613,5928 11613,5964 11613,6035 L 11613,6521 C 11613,6643 11612,6728 11609,6788 11641,6788 11732,6786 11773,6781 11800,6778 11808,6772 11808,6742 L 11808,6408 11830,6408 C 11865,6408 11897,6416 11940,6504 12003,6629 12029,6688 12061,6728 12099,6776 12140,6790 12203,6790 12247,6790 12314,6784 12328,6773 L 12328,6770 C 12293,6736 12237,6658 12170,6533 12122,6443 12074,6365 12051,6348 12121,6323 12225,6250 12225,6124 12225,5945 12121,5864 11883,5864 Z"/>
      </g>
     </g>
     <g class="com.sun.star.drawing.ClosedBezierShape">
      <g id="id17">
       <rect class="BoundingBox" stroke="none" fill="none" x="12442" y="5865" width="209" height="924"/>
       <path fill="rgb(55,18,11)" stroke="none" d="M 12614,5866 C 12583,5866 12470,5873 12443,5877 12445,5906 12447,5965 12447,6062 L 12447,6759 C 12447,6784 12456,6788 12480,6788 12517,6788 12625,6784 12650,6775 12649,6746 12646,6699 12646,6596 L 12646,5945 C 12646,5880 12642,5866 12614,5866 Z"/>
      </g>
     </g>
     <g class="com.sun.star.drawing.ClosedBezierShape">
      <g id="id18">
       <rect class="BoundingBox" stroke="none" fill="none" x="2038" y="4515" width="780" height="936"/>
       <path fill="rgb(55,18,11)" stroke="none" d="M 2816,4515 C 2788,4515 2728,4516 2685,4521 2664,4524 2653,4529 2653,4558 L 2653,4998 C 2653,5269 2556,5313 2447,5313 2342,5313 2242,5262 2242,5001 L 2242,4602 C 2242,4529 2238,4515 2210,4515 2178,4515 2066,4522 2039,4526 2042,4557 2043,4616 2043,4714 L 2043,5018 C 2043,5313 2169,5449 2424,5449 2603,5449 2812,5384 2812,4989 L 2812,4780 C 2812,4658 2814,4573 2816,4515 Z"/>
      </g>
     </g>
     <g class="com.sun.star.drawing.ClosedBezierShape">
      <g id="id19">
       <rect class="BoundingBox" stroke="none" fill="none" x="2951" y="4515" width="788" height="932"/>
       <path fill="rgb(55,18,11)" stroke="none" d="M 3737,4515 C 3702,4515 3657,4518 3617,4522 3592,4524 3585,4529 3585,4563 L 3585,4972 C 3585,5046 3585,5092 3590,5199 3559,5122 3504,5035 3443,4929 3354,4782 3241,4608 3195,4541 3181,4526 3170,4515 3153,4515 3122,4515 2988,4522 2951,4526 L 2951,4533 2975,4561 2975,5172 C 2975,5295 2974,5378 2970,5436 2980,5437 2989,5437 2999,5437 3037,5437 3070,5434 3091,5430 3114,5426 3122,5421 3122,5393 L 3122,5008 C 3122,4934 3122,4859 3117,4718 3177,4840 3226,4931 3322,5084 3419,5240 3470,5325 3535,5421 3549,5439 3556,5445 3577,5445 3629,5445 3720,5426 3733,5419 L 3733,4782 C 3733,4661 3734,4578 3737,4515 Z"/>
      </g>
     </g>
     <g class="com.sun.star.drawing.ClosedBezierShape">
      <g id="id20">
       <rect class="BoundingBox" stroke="none" fill="none" x="3927" y="4515" width="210" height="922"/>
       <path fill="rgb(55,18,11)" stroke="none" d="M 4100,4515 C 4068,4515 3955,4522 3928,4526 3931,4554 3932,4615 3932,4711 L 3932,5407 C 3932,5432 3942,5436 3965,5436 4002,5436 4111,5432 4136,5426 4135,5395 4132,5348 4132,5245 L 4132,4595 C 4132,4529 4127,4515 4100,4515 Z"/>
      </g>
     </g>
     <g class="com.sun.star.drawing.ClosedBezierShape">
      <g id="id21">
       <rect class="BoundingBox" stroke="none" fill="none" x="4256" y="4511" width="855" height="936"/>
       <path fill="rgb(55,18,11)" stroke="none" d="M 4953,4512 C 4870,4743 4792,4965 4715,5199 4646,4986 4556,4758 4500,4598 4477,4529 4466,4515 4444,4515 4398,4515 4313,4529 4256,4548 4373,4811 4507,5170 4605,5445 4671,5445 4737,5438 4756,5428 4770,5419 4780,5405 4792,5377 4899,5118 5006,4860 5100,4598 5116,4552 5111,4541 5094,4533 5073,4522 5007,4512 4953,4512 Z"/>
      </g>
     </g>
     <g class="com.sun.star.drawing.ClosedBezierShape">
      <g id="id22">
       <rect class="BoundingBox" stroke="none" fill="none" x="5229" y="4521" width="559" height="916"/>
       <path fill="rgb(55,18,11)" stroke="none" d="M 5746,4521 L 5410,4521 C 5345,4521 5273,4532 5229,4541 5234,4605 5234,4655 5234,4723 L 5234,5393 5255,5421 C 5290,5430 5383,5436 5502,5436 5617,5436 5690,5434 5709,5430 5748,5406 5772,5378 5787,5313 L 5784,5310 C 5709,5317 5608,5317 5553,5317 5502,5317 5466,5313 5433,5307 L 5433,5020 5635,5020 C 5687,5020 5723,4991 5730,4902 L 5433,4902 5433,4640 5561,4640 C 5624,4640 5682,4640 5702,4633 5720,4612 5736,4595 5746,4521 Z"/>
      </g>
     </g>
     <g class="com.sun.star.drawing.ClosedBezierShape">
      <g id="id23">
       <rect class="BoundingBox" stroke="none" fill="none" x="5909" y="4511" width="721" height="929"/>
       <path fill="rgb(55,18,11)" stroke="none" d="M 6124,4955 C 6118,4955 6112,4955 6107,4954 L 6107,4622 C 6120,4619 6145,4618 6165,4618 6247,4618 6319,4671 6319,4788 6319,4892 6261,4929 6240,4938 6223,4947 6163,4955 6124,4955 Z M 6183,4512 C 6113,4512 5946,4529 5911,4538 5913,4578 5913,4612 5913,4683 L 5913,5170 C 5913,5292 5912,5378 5909,5436 5941,5436 6032,5434 6073,5430 6101,5428 6107,5421 6107,5393 L 6107,5059 6131,5059 C 6166,5059 6198,5067 6241,5153 6304,5277 6329,5338 6361,5378 6398,5426 6441,5439 6504,5439 6548,5439 6616,5432 6628,5423 L 6628,5418 C 6593,5387 6537,5307 6469,5182 6422,5092 6375,5015 6351,4998 6420,4972 6524,4901 6524,4773 6524,4593 6420,4512 6183,4512 Z"/>
      </g>
     </g>
     <g class="com.sun.star.drawing.ClosedBezierShape">
      <g id="id24">
       <rect class="BoundingBox" stroke="none" fill="none" x="6709" y="4497" width="581" height="954"/>
       <path fill="rgb(55,18,11)" stroke="none" d="M 7042,4497 L 7041,4497 C 6796,4497 6723,4660 6723,4766 6723,4841 6753,4934 6902,5024 7061,5122 7086,5158 7086,5208 7086,5273 7034,5306 6948,5306 6884,5306 6800,5278 6748,5245 6734,5253 6709,5313 6709,5346 6709,5366 6719,5378 6745,5397 6783,5426 6857,5449 6958,5449 7128,5449 7288,5356 7288,5169 7288,5023 7198,4970 7095,4905 6959,4815 6912,4782 6912,4720 6912,4671 6953,4632 7039,4632 7083,4632 7153,4652 7188,4672 7234,4651 7248,4592 7245,4565 7219,4538 7138,4497 7042,4497 Z"/>
      </g>
     </g>
     <g class="com.sun.star.drawing.ClosedBezierShape">
      <g id="id25">
       <rect class="BoundingBox" stroke="none" fill="none" x="7427" y="4515" width="210" height="922"/>
       <path fill="rgb(55,18,11)" stroke="none" d="M 7599,4515 C 7567,4515 7455,4522 7427,4526 7430,4554 7431,4615 7431,4711 L 7431,5407 C 7431,5432 7442,5436 7465,5436 7501,5436 7611,5432 7635,5426 7634,5395 7631,5348 7631,5245 L 7631,4595 C 7631,4529 7626,4515 7599,4515 Z"/>
      </g>
     </g>
     <g class="com.sun.star.drawing.ClosedBezierShape">
      <g id="id26">
       <rect class="BoundingBox" stroke="none" fill="none" x="7855" y="4511" width="823" height="933"/>
       <path fill="rgb(55,18,11)" stroke="none" d="M 8163,5329 C 8118,5329 8091,5325 8058,5318 L 8058,4633 C 8076,4628 8098,4626 8144,4626 8341,4626 8464,4739 8464,4962 8464,5269 8285,5329 8163,5329 Z M 8170,4512 C 8044,4512 7891,4533 7856,4544 7858,4578 7859,4607 7859,4706 L 7859,5415 C 7958,5432 8060,5442 8165,5442 8458,5442 8677,5271 8677,4965 8677,4777 8598,4512 8170,4512 Z"/>
      </g>
     </g>
     <g class="com.sun.star.drawing.ClosedBezierShape">
      <g id="id27">
       <rect class="BoundingBox" stroke="none" fill="none" x="8718" y="4515" width="883" height="922"/>
       <path fill="rgb(55,18,11)" stroke="none" d="M 9017,5059 C 9070,4913 9105,4815 9139,4724 9153,4761 9199,4881 9263,5059 L 9017,5059 Z M 9229,4515 C 9213,4515 9122,4521 9061,4534 L 9070,4561 C 9015,4694 8793,5235 8719,5411 L 8720,5417 C 8753,5428 8812,5436 8845,5436 8868,5436 8877,5430 8884,5417 8902,5372 8945,5257 8976,5175 L 9295,5175 C 9324,5253 9343,5315 9370,5388 9384,5430 9395,5436 9419,5436 9454,5436 9565,5430 9598,5418 L 9599,5412 C 9570,5348 9536,5257 9477,5104 9429,4981 9329,4704 9263,4544 9253,4522 9242,4515 9229,4515 Z"/>
      </g>
     </g>
     <g class="com.sun.star.drawing.ClosedBezierShape">
      <g id="id28">
       <rect class="BoundingBox" stroke="none" fill="none" x="9719" y="4511" width="823" height="933"/>
       <path fill="rgb(55,18,11)" stroke="none" d="M 10028,5329 C 9985,5329 9956,5325 9923,5318 L 9923,4633 C 9941,4628 9963,4626 10009,4626 10205,4626 10329,4739 10329,4962 10329,5269 10148,5329 10028,5329 Z M 10034,4512 C 9909,4512 9755,4533 9720,4544 9722,4578 9723,4607 9723,4706 L 9723,5415 C 9823,5432 9924,5442 10029,5442 10322,5442 10541,5271 10541,4965 10541,4777 10462,4512 10034,4512 Z"/>
      </g>
     </g>
     <g class="com.sun.star.drawing.ClosedBezierShape">
      <g id="id29">
       <rect class="BoundingBox" stroke="none" fill="none" x="10655" y="4521" width="559" height="916"/>
       <path fill="rgb(55,18,11)" stroke="none" d="M 11172,4521 L 10834,4521 C 10769,4521 10698,4532 10655,4541 10660,4605 10660,4655 10660,4723 L 10660,5393 10681,5421 C 10716,5430 10807,5436 10929,5436 11043,5436 11116,5434 11136,5430 11174,5406 11198,5378 11212,5313 L 11209,5310 C 11136,5317 11034,5317 10978,5317 10929,5317 10892,5313 10858,5307 L 10858,5020 11061,5020 C 11112,5020 11149,4991 11157,4902 L 10858,4902 10858,4640 10987,4640 C 11050,4640 11107,4640 11129,4633 11146,4612 11162,4595 11172,4521 Z"/>
      </g>
     </g>
     <g class="com.sun.star.drawing.ClosedBezierShape">
      <g id="id30">
       <rect class="BoundingBox" stroke="none" fill="none" x="2948" y="1399" width="7356" height="2281"/>
       <path fill="rgb(55,18,11)" stroke="none" d="M 10061,1670 C 10059,1667 10044,1651 10038,1644 9881,1485 9665,1400 9416,1400 L 9401,1400 9393,1400 9385,1400 9370,1400 C 9120,1400 8905,1485 8748,1644 8743,1651 8727,1667 8724,1670 8564,1846 8484,2105 8484,2439 L 8484,2686 C 8335,2829 8051,3223 7693,3221 7578,3220 7470,3179 7381,3104 7237,2982 7170,2812 7170,2519 7170,2186 7348,1855 7703,1869 7795,1872 7953,1870 7968,1870 8135,1870 8419,1730 8393,1431 8393,1430 7972,1405 7671,1405 6923,1405 6689,1905 6621,2358 6080,2202 5755,2294 5616,2331 5616,2253 5617,2193 5617,2123 5634,1971 5704,1888 5838,1869 5846,1869 6214,1869 6234,1869 6597,1869 6728,1635 6728,1476 L 6728,1427 5034,1427 5034,2545 C 5034,2755 4810,2939 4731,2996 4758,2889 4773,2768 4773,2638 L 4773,1434 4633,1434 C 4462,1434 4191,1584 4191,1986 L 4191,2641 C 4191,3100 4037,3199 3918,3218 3896,3219 3872,3219 3847,3218 3782,3217 3719,3188 3653,3141 3573,3055 3531,2901 3531,2667 L 3531,1986 C 3531,1584 3260,1434 3089,1434 L 2948,1434 2948,2638 2949,2655 C 2948,2691 2950,2726 2952,2759 2970,3036 3050,3246 3190,3399 3192,3402 3208,3419 3214,3424 3368,3582 3610,3677 3863,3677 L 3878,3677 3885,3677 3895,3677 3909,3677 C 4155,3677 4347,3589 4507,3425 4514,3418 4530,3401 4532,3400 4548,3383 4562,3365 4577,3349 4703,3317 4893,3273 5034,3214 L 5034,3649 5152,3649 C 5304,3649 5427,3588 5511,3477 5584,3379 5623,3245 5623,3089 5623,2925 5817,2689 6075,2564 6322,2445 6579,2490 6604,2491 6603,2529 6602,2568 6603,2606 6615,3025 6876,3679 7587,3679 7860,3679 8080,3544 8262,3367 8352,3281 8419,3187 8484,3084 L 8484,3646 8646,3646 C 8803,3646 9065,3461 9065,3093 L 9065,2583 C 9329,2548 9610,2696 9711,2921 9731,2967 9747,3123 9747,3191 9747,3436 9971,3646 10148,3646 L 10303,3646 10303,2439 C 10303,2105 10221,1846 10061,1670 Z M 3864,3619 C 3682,3619 2954,3544 3005,2515 3076,2757 3395,3541 4469,3369 4465,3375 4277,3619 3864,3619 Z M 4705,1508 L 4705,2643 4705,2645 C 4705,2793 4684,2939 4651,3055 4463,3201 4141,3248 4003,3236 L 4011,3235 4003,3234 C 4124,3215 4259,3065 4259,2653 L 4259,1992 4259,1990 C 4259,1595 4536,1506 4633,1506 L 4705,1506 4705,1508 Z M 6659,1502 C 6649,1602 6560,1807 6234,1807 6222,1807 5921,1809 5905,1809 5880,1809 5857,1811 5834,1813 L 5829,1815 C 5806,1815 5786,1818 5766,1822 5744,1825 5720,1829 5692,1836 5669,1841 5646,1848 5621,1855 5642,1599 5750,1524 5904,1502 L 6659,1502 Z M 5443,1932 C 5320,2002 5183,2124 5103,2330 L 5103,1502 5739,1502 C 5646,1559 5582,1667 5568,1873 5527,1889 5485,1908 5443,1932 Z M 8997,3099 C 8997,3494 8720,3583 8624,3583 L 8552,3583 8552,2981 C 8671,2801 8748,2682 8997,2585 L 8997,3099 Z M 8696,2702 C 8616,2776 8531,2904 8431,3056 8193,3417 7905,3617 7587,3617 6984,3617 6672,3065 6672,2511 6972,2552 7096,3327 7704,3327 8005,3327 8220,3089 8488,2796 8723,2539 8910,2519 8997,2533 8913,2553 8775,2631 8696,2702 Z M 8997,2358 C 8806,2411 8668,2513 8551,2622 L 8552,2447 C 8552,2129 8627,1886 8774,1722 8776,1720 8791,1705 8797,1699 8860,1634 8935,1583 9020,1545 9315,1550 9479,1709 9571,1839 9522,1817 9464,1802 9394,1801 L 9392,1801 C 9056,1809 9000,2067 8997,2358 Z M 9473,2325 C 9433,2319 9389,2316 9344,2316 9237,2317 9155,2326 9066,2341 9071,2051 9133,1876 9393,1869 9648,1876 9711,2091 9720,2380 9623,2353 9558,2336 9473,2325 Z"/>
      </g>
     </g>
     <g class="com.sun.star.drawing.ClosedBezierShape">
      <g id="id31">
       <rect class="BoundingBox" stroke="none" fill="none" x="3003" y="2512" width="1470" height="1106"/>
       <path fill="rgb(128,205,71)" stroke="none" d="M 3006,2513 C 2956,3543 3683,3617 3865,3617 4278,3617 4468,3374 4472,3368 3397,3540 3077,2756 3006,2513 Z"/>
      </g>
     </g>
     <g class="com.sun.star.drawing.ClosedBezierShape">
      <g id="id32">
       <rect class="BoundingBox" stroke="none" fill="none" x="5620" y="1500" width="1042" height="355"/>
       <path fill="rgb(128,205,71)" stroke="none" d="M 5621,1854 C 5646,1846 5669,1840 5692,1834 5720,1828 5744,1824 5766,1821 5786,1817 5806,1813 5829,1813 L 5834,1812 C 5857,1810 5880,1808 5905,1808 5922,1808 6223,1807 6235,1807 6561,1807 6650,1600 6660,1500 L 5904,1500 C 5750,1522 5642,1597 5621,1854 Z"/>
      </g>
     </g>
     <g class="com.sun.star.drawing.ClosedBezierShape">
      <g id="id33">
       <rect class="BoundingBox" stroke="none" fill="none" x="5102" y="1500" width="640" height="831"/>
       <path fill="rgb(251,200,63)" stroke="none" d="M 5740,1500 L 5103,1500 5103,2329 C 5184,2123 5321,2000 5444,1930 5486,1906 5528,1887 5569,1871 5583,1665 5647,1557 5740,1500 Z"/>
      </g>
     </g>
     <g class="com.sun.star.drawing.ClosedBezierShape">
      <g id="id34">
       <rect class="BoundingBox" stroke="none" fill="none" x="8550" y="2584" width="448" height="1000"/>
       <path fill="rgb(251,200,63)" stroke="none" d="M 8997,3100 L 8997,2585 C 8748,2681 8671,2800 8551,2981 L 8551,3583 8623,3583 C 8720,3583 8997,3495 8997,3100 Z"/>
      </g>
     </g>
     <g class="com.sun.star.drawing.ClosedBezierShape">
      <g id="id35">
       <rect class="BoundingBox" stroke="none" fill="none" x="8549" y="1544" width="1023" height="1080"/>
       <path fill="rgb(246,132,81)" stroke="none" d="M 9392,1800 L 9394,1800 C 9464,1802 9522,1816 9571,1839 9479,1709 9315,1548 9020,1544 8935,1581 8860,1633 8797,1699 8791,1704 8775,1720 8773,1722 8626,1885 8551,2128 8551,2446 L 8550,2623 C 8667,2513 8806,2409 8997,2358 9000,2066 9056,1809 9392,1800 Z"/>
      </g>
     </g>
     <g class="com.sun.star.drawing.ClosedBezierShape">
      <g id="id36">
       <rect class="BoundingBox" stroke="none" fill="none" x="6671" y="2510" width="2327" height="1108"/>
       <path fill="rgb(102,204,216)" stroke="none" d="M 7585,3617 C 7903,3617 8190,3418 8429,3057 8530,2905 8614,2777 8696,2702 8774,2631 8912,2553 8997,2533 8910,2519 8722,2539 8486,2797 8218,3090 8003,3328 7702,3328 7095,3328 6971,2553 6671,2511 6671,3066 6983,3617 7585,3617 Z"/>
      </g>
     </g>
     <g class="com.sun.star.drawing.ClosedBezierShape">
      <g id="id37">
       <rect class="BoundingBox" stroke="none" fill="none" x="4002" y="1506" width="706" height="1733"/>
       <path fill="rgb(246,132,81)" stroke="none" d="M 4706,2643 C 4706,2791 4684,2938 4651,3054 4463,3200 4141,3247 4003,3235 4124,3216 4259,3066 4259,2653 L 4259,1990 C 4259,1595 4536,1506 4633,1506 L 4706,1506 4706,2643 Z"/>
      </g>
     </g>
    </g>
   </g>
  </g>
 </g>
</svg>